HIERARCHY
ROOT Hips
{
	OFFSET 0.000000 0.000000 0.000000
	CHANNELS 6 Xposition Yposition Zposition Zrotation Yrotation Xrotation 
	JOINT LHipJoint
	{
		OFFSET 0.000000 0.000000 0.000000
		CHANNELS 3 Zrotation Yrotation Xrotation
		JOINT LeftUpLeg
		{
			OFFSET 1.363060 -1.794630 0.839290
			CHANNELS 3 Zrotation Yrotation Xrotation
			JOINT LeftLeg
			{
				OFFSET 2.448110 -6.726130 0.000000
				CHANNELS 3 Zrotation Yrotation Xrotation
				JOINT LeftFoot
				{
					OFFSET 2.562200 -7.039590 0.000000
					CHANNELS 3 Zrotation Yrotation Xrotation
					JOINT LeftToeBase
					{
						OFFSET 0.157640 -0.433110 2.322550
						CHANNELS 3 Zrotation Yrotation Xrotation
						End Site
						{
							OFFSET 0.000000 0.000000 0.000000
						}
					}
				}
			}
		}
	}
	JOINT RHipJoint
	{
		OFFSET 0.000000 0.000000 0.000000
		CHANNELS 3 Zrotation Yrotation Xrotation
		JOINT RightUpLeg
		{
			OFFSET -1.305520 -1.794630 0.839290
			CHANNELS 3 Zrotation Yrotation Xrotation
			JOINT RightLeg
			{
				OFFSET -2.542530 -6.985550 0.000000
				CHANNELS 3 Zrotation Yrotation Xrotation
				JOINT RightFoot
				{
					OFFSET -2.568260 -7.056230 0.000000
					CHANNELS 3 Zrotation Yrotation Xrotation
					JOINT RightToeBase
					{
						OFFSET -0.164730 -0.452590 2.363150
						CHANNELS 3 Zrotation Yrotation Xrotation
						End Site
						{
							OFFSET 0.000000 0.000000 0.000000
						}
					}
				}
			}
		}
	}
	JOINT LowerBack
	{
		OFFSET 0.000000 0.000000 0.000000
		CHANNELS 3 Zrotation Yrotation Xrotation
		JOINT Spine
		{
			OFFSET 0.028270 2.035590 -0.193380
			CHANNELS 3 Zrotation Yrotation Xrotation
			JOINT Spine1
			{
				OFFSET 0.056720 2.048850 -0.042750
				CHANNELS 3 Zrotation Yrotation Xrotation
				JOINT Neck
				{
					OFFSET 0.000000 0.000000 0.000000
					CHANNELS 3 Zrotation Yrotation Xrotation
					JOINT Neck1
					{
						OFFSET -0.054170 1.746240 0.172020
						CHANNELS 3 Zrotation Yrotation Xrotation
						JOINT Head
						{
							OFFSET 0.104070 1.761360 -0.123970
							CHANNELS 3 Zrotation Yrotation Xrotation
							End Site
							{
								OFFSET 0.000000 0.000000 0.000000
							}
						}
					}
				}
				JOINT LeftShoulder
				{
					OFFSET 0.000000 0.000000 0.000000
					CHANNELS 3 Zrotation Yrotation Xrotation
					JOINT LeftArm
					{
						OFFSET 3.362410 1.200890 -0.311210
						CHANNELS 3 Zrotation Yrotation Xrotation
						JOINT LeftForeArm
						{
							OFFSET 4.983000 -0.000000 -0.000000
							CHANNELS 3 Zrotation Yrotation Xrotation
							JOINT LeftHand
							{
								OFFSET 3.483560 -0.000000 -0.000000
								CHANNELS 3 Zrotation Yrotation Xrotation
								JOINT LeftFingerBase
								{
									OFFSET 0.000000 0.000000 0.000000
									CHANNELS 3 Zrotation Yrotation Xrotation
									JOINT LeftHandIndex1
									{
										OFFSET 0.715260 -0.000000 -0.000000
										CHANNELS 3 Zrotation Yrotation Xrotation
										End Site
										{
											OFFSET 0.000000 0.000000 0.000000
										}
									}
								}
								JOINT LThumb
								{
									OFFSET 0.000000 0.000000 0.000000
									CHANNELS 3 Zrotation Yrotation Xrotation
									End Site
									{
										OFFSET 0.000000 0.000000 0.000000
									}
								}
							}
						}
					}
				}
				JOINT RightShoulder
				{
					OFFSET 0.000000 0.000000 0.000000
					CHANNELS 3 Zrotation Yrotation Xrotation
					JOINT RightArm
					{
						OFFSET -3.136600 1.374050 -0.404650
						CHANNELS 3 Zrotation Yrotation Xrotation
						JOINT RightForeArm
						{
							OFFSET -5.241900 -0.000000 -0.000000
							CHANNELS 3 Zrotation Yrotation Xrotation
							JOINT RightHand
							{
								OFFSET -3.444170 -0.000000 -0.000000
								CHANNELS 3 Zrotation Yrotation Xrotation
								JOINT RightFingerBase
								{
									OFFSET 0.000000 0.000000 0.000000
									CHANNELS 3 Zrotation Yrotation Xrotation
									JOINT RightHandIndex1
									{
										OFFSET -0.622530 -0.000000 -0.000000
										CHANNELS 3 Zrotation Yrotation Xrotation
										End Site
										{
											OFFSET 0.000000 0.000000 0.000000
										}
									}
								}
								JOINT RThumb
								{
									OFFSET 0.000000 0.000000 0.000000
									CHANNELS 3 Zrotation Yrotation Xrotation
									End Site
									{
										OFFSET 0.000000 0.000000 0.000000
									}
								}
							}
						}
					}
				}
			}
		}
	}
}
MOTION
Frames: 5
Frame Time: 0.008333
25.037095 17.625990 0.580767 -162.616597 -84.288188 155.849131 5.897655 1.695773 0.262610 -19.446859 -11.729856 4.959413 -0.445400 8.001680 24.230024 -4.197335 18.150165 -14.999846 0.146900 -2.469900 -6.806200 -9.202361 -0.098341 -3.001602 31.277778 7.943338 6.966259 -0.596048 -8.163419 22.841912 3.797270 -22.703278 -24.232300 -1.499600 7.735000 -21.912200 -1.544104 0.233508 7.282424 1.912239 0.397178 2.871150 -3.803918 -0.093394 7.061744 -1.653648 -6.400012 -2.673647 10.889139 -10.107922 7.044225 0.485200 -4.788400 1.713100 14.889965 0.216072 1.012031 -105.774395 -24.778859 50.082109 154.083386 -42.996845 -112.433356 0.729809 -1.654340 -4.349835 -3.239869 -14.892053 0.878500 -7.125000 0.000000 0.000000 -21.155800 17.238900 15.000300 -17.027433 -1.437027 1.342873 109.380162 21.886737 67.083184 -148.375922 46.805564 -108.352759 -0.924842 1.561765 -4.275698 -23.040190 25.617048 -9.446000 7.125000 0.000000 0.000000 4.335500 -4.347000 4.006100 
25.040759 17.625074 0.581225 -162.964399 -84.286882 156.212748 5.896453 1.686543 0.256866 -19.447751 -11.638278 4.844111 -0.427200 8.038076 24.316569 -4.188518 18.099939 -14.884941 0.159000 -2.569400 -7.082100 -9.201447 -0.105375 -2.999051 31.199882 7.877771 6.860857 -0.605667 -8.182670 22.887048 3.813095 -22.706496 -24.100752 -1.531500 7.813200 -22.148000 -1.485574 0.254133 7.310100 1.887969 0.427889 2.857877 -3.934297 -0.061253 7.016752 -1.511430 -6.326530 -2.644390 10.801260 -10.012804 7.075879 0.424600 -4.739300 1.705500 14.920606 0.162649 1.017766 -105.636170 -25.041689 50.028756 154.165828 -42.896814 -112.473004 0.746700 -1.634032 -4.515741 -3.620309 -14.244303 0.923100 -7.125000 0.000000 0.000000 -21.489700 17.830500 14.971100 -17.054060 -1.371645 1.317191 109.523656 22.245156 66.999687 -148.315194 46.809459 -108.315757 -0.921443 1.564936 -4.417518 -23.199849 25.811954 -9.592500 7.125000 0.000000 0.000000 4.252600 -4.120000 3.947100 
25.044537 17.623013 0.580882 -161.905419 -84.151592 155.158122 5.907452 1.703213 0.258187 -19.235384 -11.471364 4.618474 -0.373246 8.128664 24.574620 -4.157251 17.972605 -14.784684 0.178800 -2.723700 -7.510400 -9.199062 -0.091454 -3.002696 31.315415 7.795779 6.768935 -0.608406 -8.200286 22.907079 3.826843 -22.683110 -23.911685 -1.565000 7.894300 -22.393600 -1.292880 0.279772 7.392451 1.896427 0.465418 2.839226 -4.000866 -0.028721 6.906700 -1.410294 -6.177395 -2.535949 10.718029 -9.821887 7.060788 0.378000 -4.648000 1.658700 14.962603 0.095603 1.021837 -105.555375 -25.318572 49.940157 154.213444 -42.818291 -112.495326 0.752644 -1.621337 -4.560060 -3.812080 -13.939248 0.943900 -7.125000 0.000000 0.000000 -21.655900 18.104900 14.962900 -17.074128 -1.302233 1.295977 109.612781 22.593595 66.958690 -148.225939 46.834767 -108.267388 -0.913587 1.569765 -4.558881 -23.234406 26.134979 -9.730000 7.125000 0.000000 0.000000 4.258200 -3.781200 3.979400 
25.049001 17.618205 0.579393 -159.959198 -83.971924 153.185553 5.926160 1.742030 0.264916 -18.905437 -11.294641 4.429577 -0.318545 8.203816 24.812817 -4.117903 17.810840 -14.685899 0.192200 -2.823600 -7.787900 -9.192564 -0.072362 -3.017108 31.515733 7.571306 6.614941 -0.625803 -8.259538 23.029681 3.827632 -22.578849 -23.619534 -1.617200 8.018500 -22.770200 -1.035175 0.284096 7.457702 1.932907 0.473215 2.842543 -3.993829 -0.017956 6.874535 -1.348180 -5.899686 -2.483377 10.600802 -9.454786 7.041639 0.322900 -4.470200 1.615800 15.008325 0.017461 1.026250 -105.521499 -25.633618 49.775526 154.223500 -42.777046 -112.491837 0.743284 -1.621246 -4.426908 -3.667413 -14.163237 0.928500 -7.125000 0.000000 0.000000 -21.529000 17.893200 14.970400 -17.087523 -1.227035 1.274409 109.652513 23.053528 67.001035 -148.101088 46.889973 -108.198166 -0.904544 1.572615 -4.680819 -23.199156 26.112142 -9.708700 7.125000 0.000000 0.000000 4.268700 -3.816100 3.986400 
25.053123 17.608588 0.578821 -159.029692 -83.858789 152.154217 5.942462 1.762750 0.264391 -18.722525 -11.104981 4.296535 -0.259091 8.292403 25.093155 -4.049395 17.583921 -14.652610 0.194400 -2.839300 -7.831600 -9.183500 -0.073976 -3.035378 31.554771 7.219591 6.444960 -0.663839 -8.345957 23.254653 3.802260 -22.368773 -23.288441 -1.678200 8.161000 -23.204100 -0.869450 0.310859 7.528999 1.951071 0.507581 2.866963 -4.033219 0.006341 6.932837 -1.127895 -5.405570 -2.589895 10.463543 -8.804502 7.147546 0.215600 -4.137900 1.648400 15.056515 -0.056733 1.031665 -105.454896 -25.968921 49.651626 154.239760 -42.740744 -112.487419 0.715234 -1.626469 -4.294794 -3.363375 -14.954929 0.910500 -7.125000 0.000000 0.000000 -21.217000 17.153500 15.093800 -17.094979 -1.147113 1.242774 109.716532 23.592392 66.937123 -147.976025 46.942762 -108.126792 -0.895460 1.575811 -4.788445 -23.099588 25.935837 -9.600900 7.125000 0.000000 0.000000 4.302000 -4.023700 4.001000 
